<svg version="1.1" id="Layer_1" xmlns="http://www.w3.org/2000/svg" xmlns:xlink="http://www.w3.org/1999/xlink" x="0px" y="0px"
	 width="100%" viewBox="0 0 250 250" enable-background="new 0 0 250 250" xml:space="preserve">
<path fill="#070503" opacity="1.000000" stroke="none" 
	d="
M251.000000,5.000000 
	C251.000000,85.354225 251.000000,165.708450 250.552612,246.682129 
	C169.684723,247.301575 89.264191,247.301575 8.813282,247.301575 
	C8.813282,166.239792 8.813282,85.725090 8.813282,5.170964 
	C9.608908,5.065322 10.090649,4.945256 10.572372,4.945332 
	C90.714912,4.957926 170.857452,4.979132 251.000000,5.000000 
M222.495575,186.450668 
	C222.495575,186.450668 222.585434,186.450195 223.115036,186.079681 
	C226.389801,182.825912 230.096985,179.653503 225.234909,174.057846 
	C225.826920,171.632324 226.418930,169.206802 227.687851,167.034302 
	C228.991943,168.639603 230.296036,170.244904 231.589828,171.837509 
	C249.401031,133.325745 243.455414,82.632713 213.365402,47.962811 
	C209.776154,43.827225 205.553940,42.530319 200.737442,41.753723 
	C200.246841,41.674622 199.603943,42.539997 198.684128,43.465851 
	C197.117584,43.597019 195.551056,43.728184 193.312515,43.939571 
	C190.070557,45.388412 186.828598,46.837250 183.541916,48.306072 
	C187.346802,51.805367 190.503403,54.708462 193.660019,57.611553 
	C193.471802,57.978752 193.283585,58.345955 193.095367,58.713154 
	C190.425293,58.036873 187.348312,57.987144 185.161362,56.566914 
	C178.583145,52.294914 176.224030,52.323479 169.947266,59.721237 
	C173.237183,63.527008 176.409943,67.197243 179.582703,70.867477 
	C179.142761,71.378357 178.702820,71.889236 178.262878,72.400116 
	C175.238831,70.627930 172.321869,68.622543 169.152283,67.167389 
	C167.115646,66.232368 164.122269,65.021805 162.589249,65.848228 
	C159.545547,67.489029 157.214874,70.452492 155.400497,72.122787 
	C158.122360,75.396721 160.410522,78.149017 162.698700,80.901306 
	C162.323181,81.439507 161.947678,81.977699 161.572159,82.515900 
	C160.229767,82.196800 158.557938,82.279846 157.598190,81.493645 
	C151.134201,76.198502 149.638397,75.632065 142.858017,84.855957 
	C145.071167,89.289886 151.990814,91.016113 151.036041,97.293983 
	C152.209137,99.833176 153.541397,102.452087 155.573563,104.302193 
	C157.445816,106.006714 160.070145,106.885162 162.803665,108.366142 
	C159.645752,109.814613 156.292053,111.352867 152.283783,112.882751 
	C151.505508,113.573837 150.727234,114.264923 150.000000,114.999695 
	C150.000000,114.999695 149.956161,114.948784 149.297806,115.129539 
	C146.003052,119.945015 142.708313,124.760490 139.355911,129.660233 
	C142.213913,131.605423 144.388229,133.085281 146.651947,135.193237 
	C143.357147,134.253723 139.823746,133.792297 136.810608,132.288437 
	C126.153275,126.969398 115.085098,125.207283 103.493286,127.020645 
	C105.237679,130.662445 106.873840,134.078308 109.091713,138.708603 
	C106.401733,137.866577 105.221710,137.497192 103.439224,136.815475 
	C102.282608,136.135330 101.125999,135.455170 99.204826,134.711960 
	C91.235237,130.444962 91.235237,130.444962 83.557732,137.089157 
	C88.423897,139.945129 89.894028,144.653259 90.587936,150.313660 
	C88.774338,149.577545 87.202301,148.939484 84.942284,148.022186 
	C85.708076,156.777191 86.435707,165.095917 87.163338,173.414658 
	C86.817078,173.440857 86.470818,173.467072 86.124557,173.493271 
	C85.427856,171.658432 84.731148,169.823593 84.130585,167.130600 
	C83.902618,160.283325 83.717918,153.434021 83.399323,146.590958 
	C83.352333,145.581635 82.671188,144.601822 82.038429,142.970749 
	C80.622223,142.017242 78.870247,139.986435 77.850319,140.304337 
	C74.224678,141.434372 70.848457,143.364639 67.377777,144.991852 
	C67.655067,145.571884 67.932365,146.151901 67.477295,146.888321 
	C66.485840,146.534088 65.516434,145.997131 64.497078,145.874115 
	C63.346771,145.735321 62.151539,145.968887 60.132912,145.858795 
	C58.415432,145.881119 56.697956,145.903458 54.231133,145.718338 
	C52.618496,145.584839 51.005863,145.451340 49.715355,145.344513 
	C49.445072,150.158768 49.186882,154.757645 48.928692,159.356522 
	C46.719505,156.688812 44.658085,153.831177 44.337914,150.790222 
	C43.657421,144.327118 39.676231,141.998322 34.413452,140.587723 
	C33.758022,144.709442 33.150917,148.527283 32.543812,152.345108 
	C32.129311,152.437515 31.714809,152.529907 31.300308,152.622314 
	C29.100843,145.602188 26.901377,138.582062 24.701912,131.561920 
	C24.137032,131.677795 23.572151,131.793655 23.007271,131.909515 
	C21.857817,134.747009 20.708363,137.584518 19.558910,140.422012 
	C19.195124,140.430267 18.831339,140.438507 18.467554,140.446762 
	C17.791870,134.057678 17.116188,127.668610 16.440504,121.279533 
	C15.868142,121.240097 15.295780,121.200668 14.723419,121.161232 
	C14.203562,123.415779 13.157426,125.690575 13.243308,127.921806 
	C14.408961,158.205475 25.061636,184.592865 46.135384,206.549606 
	C47.844818,208.330673 50.248676,209.445236 51.997814,210.642288 
	C53.027264,207.431000 53.863682,204.821869 54.974045,202.966263 
	C55.245506,203.892395 55.648804,204.802765 55.761723,205.747833 
	C56.018021,207.892960 56.131439,210.055176 56.302940,212.210434 
	C56.586720,212.089188 56.870495,211.967941 57.154270,211.846710 
	C57.993698,208.575699 58.833122,205.304703 59.734787,202.837036 
	C58.395023,213.384216 57.686504,215.048599 70.073082,217.367508 
	C70.987663,214.052490 71.780624,210.762100 72.866928,207.571579 
	C73.100517,206.885559 74.707428,205.969467 75.132263,206.194916 
	C75.955681,206.631790 76.578255,207.735062 76.928459,208.692276 
	C77.256531,209.588974 77.179695,210.653473 77.187035,211.644821 
	C77.257439,221.152557 78.972748,222.814270 87.353439,222.815704 
	C89.042084,218.581863 90.536964,214.833847 92.900543,210.983551 
	C93.686913,212.284042 94.941299,213.513062 95.153313,214.901260 
	C95.497787,217.156784 94.757462,219.607437 95.252884,221.799973 
	C95.577393,223.236115 97.064651,225.109711 98.395897,225.481583 
	C101.829453,226.440704 105.465622,226.674454 108.870293,227.175797 
	C108.870293,223.729965 108.870293,220.837769 109.235542,217.366013 
	C110.903687,214.983414 112.571823,212.600815 114.934441,209.226318 
	C115.244400,212.885361 115.464745,215.486496 115.756821,218.934464 
	C123.607330,213.543854 131.046768,208.435516 138.874176,203.828705 
	C139.014389,203.986862 139.154617,204.145004 139.044846,204.928085 
	C134.123215,208.330917 132.807175,212.633743 133.654190,218.762680 
	C134.937332,228.047394 134.671906,228.406662 143.662720,227.254196 
	C145.407944,227.030502 147.149490,226.778244 149.006851,226.523499 
	C145.929092,220.197083 145.929092,220.197083 149.271027,208.235306 
	C150.583679,211.343506 151.495972,214.564362 152.218246,217.827255 
	C153.716904,224.597504 155.170166,225.616272 161.501556,223.936523 
	C164.011261,223.270691 166.482346,222.459396 169.066177,221.685837 
	C164.259247,214.132233 163.999695,212.607803 166.891342,207.489166 
	C168.218613,208.694061 170.021805,209.580170 170.598450,210.973801 
	C175.033691,221.692871 174.419144,219.785629 184.048553,215.460526 
	C185.051712,215.009918 185.943039,214.310333 186.942780,213.691269 
	C180.360092,207.293823 179.868912,202.774353 185.265366,198.912354 
	C187.358871,203.030258 189.454544,207.152390 191.707489,211.583893 
	C195.784164,208.893478 198.926590,206.819611 202.848434,204.231369 
	C201.311707,203.071411 200.268951,202.284332 200.007080,201.289612 
	C202.053421,201.158173 204.099762,201.026733 206.813034,200.832886 
	C210.016953,198.250397 213.220871,195.667908 216.436707,193.075821 
	C209.833328,185.654343 209.486496,182.941299 214.710007,177.436249 
	C215.609360,179.621063 216.191528,181.670135 217.253326,183.429794 
	C218.243347,185.070480 219.743378,186.403427 221.537567,187.774185 
	C221.863632,187.362213 222.189697,186.950226 222.495575,186.450668 
M137.128555,94.099838 
	C136.217331,89.031799 135.306107,83.963760 134.394882,78.895721 
	C133.997208,78.973984 133.599533,79.052246 133.201859,79.130508 
	C133.895981,84.516838 134.590103,89.903175 135.292068,96.188751 
	C134.965897,103.418655 134.639709,110.648567 134.313538,117.878471 
	C134.726212,117.903168 135.138870,117.927856 135.551544,117.952545 
	C137.269455,110.408554 138.723999,102.839188 137.128555,94.099838 
M128.221008,77.998100 
	C128.444183,74.651802 125.878616,73.966721 123.647362,74.174644 
	C122.016571,74.326622 120.527260,75.996788 118.216347,77.034332 
	C117.480247,76.907349 116.744141,76.780365 116.115250,76.008377 
	C116.081421,75.129745 116.047592,74.251114 116.013763,73.372482 
	C113.370911,74.264420 108.967445,74.534637 108.394386,76.157471 
	C106.090340,82.682243 104.971268,89.625458 103.368546,97.294113 
	C103.647079,103.581352 103.501190,109.923904 104.311501,116.141838 
	C105.326004,123.926689 106.900894,124.586349 114.457787,122.325417 
	C113.878548,114.138283 113.305702,106.041458 113.143623,97.463676 
	C114.049812,96.655510 114.956001,95.847343 115.989120,95.897598 
	C116.136711,97.620285 116.284302,99.342972 116.275169,101.935089 
	C116.468025,105.401314 116.581093,108.874168 116.868744,112.332504 
	C117.725456,122.632561 117.751457,122.633659 127.702454,124.951950 
	C127.972878,125.014961 128.304688,124.814568 129.008530,124.634491 
	C131.919174,112.982941 132.975876,101.094101 131.128265,88.254341 
	C130.822281,86.796204 130.516296,85.338066 130.283325,83.136543 
	C129.624268,81.684464 128.965195,80.232384 128.221008,77.998100 
M127.732002,222.220520 
	C128.028366,219.863907 128.324738,217.507278 128.706253,214.473572 
	C124.155045,217.041534 119.944275,219.417419 115.100319,222.261261 
	C115.187286,224.619125 114.348381,227.627518 118.073219,227.862137 
	C121.648170,228.087341 125.248436,227.910812 129.121368,227.910812 
	C128.595612,226.176651 128.125427,224.625732 127.732002,222.220520 
M143.880066,239.894760 
	C146.108597,239.914185 147.606323,239.555359 147.239487,236.568985 
	C146.993896,234.569687 147.773300,232.444489 148.206680,229.649185 
	C143.748322,231.622437 138.228653,228.538605 134.248901,234.300110 
	C133.627777,236.392014 133.006653,238.483917 132.130264,241.435562 
	C136.374390,240.817169 139.703873,240.332047 143.880066,239.894760 
M147.660782,111.865051 
	C149.742722,110.581825 151.824661,109.298599 153.929947,108.000969 
	C149.455353,101.405869 145.009308,94.852859 139.813400,87.194626 
	C140.349747,91.765625 140.716858,94.894341 140.973053,98.941803 
	C140.370316,106.953110 139.767578,114.964409 139.129868,123.440460 
	C141.764893,119.539398 144.362991,115.693039 147.660782,111.865051 
M95.896019,123.203644 
	C97.981133,123.203644 100.066246,123.203644 101.167160,123.203644 
	C100.770027,112.732979 100.395622,102.861786 100.322731,92.263458 
	C101.190941,87.720100 102.059158,83.176743 102.927368,78.633385 
	C102.433571,78.383018 101.939774,78.132652 101.445969,77.882286 
	C98.291687,82.838013 94.755783,87.599152 92.099358,92.808739 
	C89.820030,97.278770 88.546478,102.261642 86.246613,106.497215 
	C86.566345,103.757751 86.689217,100.978210 87.237335,98.285233 
	C91.169083,78.968330 103.462715,69.299301 123.650017,70.427475 
	C125.933868,70.891693 128.217712,71.355919 131.555725,72.034409 
	C127.516899,66.365997 124.322693,61.332722 120.580704,56.746391 
	C112.929359,47.368607 103.485573,47.151237 94.181511,56.122131 
	C93.222443,56.847668 92.263382,57.573204 91.053108,58.052391 
	C91.053108,58.052391 90.803833,57.804077 90.947678,57.141098 
	C92.200615,55.818565 93.288597,54.271992 94.732513,53.208839 
	C106.578712,44.486473 115.517906,40.771191 125.742287,57.671486 
	C130.529648,65.584702 135.759476,73.230240 140.792908,81.003464 
	C148.682068,75.121704 148.682648,75.121391 144.178574,66.779045 
	C144.020813,66.486839 143.690796,66.218903 143.679077,65.930008 
	C143.649292,65.194641 143.494659,64.222473 143.884109,63.784874 
	C144.224762,63.402126 145.459976,63.301468 145.917389,63.622070 
	C148.450684,65.397713 150.841782,68.823540 153.453339,68.867943 
	C155.695831,68.906075 159.658356,65.022141 160.857346,61.836548 
	C161.703827,59.587521 158.791809,55.961727 157.678986,52.906429 
	C157.448181,52.272747 157.493515,51.209137 157.887222,50.776283 
	C158.233582,50.395470 159.472717,50.303871 159.925613,50.629570 
	C162.427551,52.428783 164.809448,54.394924 167.761520,56.720631 
	C167.802216,56.690002 169.001389,55.838856 170.144302,54.917915 
	C175.185699,50.855648 175.241653,50.167229 171.213257,45.089645 
	C169.868607,43.394798 168.606003,41.634861 166.957794,39.441433 
	C174.701019,38.645851 175.133789,38.966175 179.375931,47.786247 
	C182.770096,45.294048 188.461838,44.263199 185.060028,37.844452 
	C184.976700,37.687229 185.600800,37.155075 186.145477,37.255878 
	C187.005325,37.255878 187.865158,37.255878 188.725006,37.255878 
	C188.871948,36.865429 189.018890,36.474979 189.165833,36.084530 
	C187.705490,35.407562 186.245163,34.730595 184.292801,33.768936 
	C183.844025,33.491718 183.395264,33.214497 182.488037,32.388573 
	C181.984283,31.811749 181.480530,31.234922 180.026505,29.569998 
	C182.926483,30.021111 185.264282,29.686829 186.060883,30.640259 
	C188.401276,33.441353 190.129547,36.753895 192.314529,40.209404 
	C193.609879,39.734085 195.565231,39.016575 198.742538,37.850674 
	C186.361267,20.364635 168.358917,15.287060 149.277802,10.513717 
	C143.331512,9.799985 137.397049,8.607311 131.436752,8.459974 
	C111.469490,7.966389 92.382057,11.598440 74.169548,21.858711 
	C42.193771,39.479820 23.082378,66.532402 15.288183,101.954468 
	C14.776647,104.279236 15.429743,105.287254 18.246288,105.971367 
	C19.778116,105.318398 21.309944,104.665436 22.817207,104.712212 
	C21.316772,108.033035 19.755878,111.283432 15.045582,110.603394 
	C14.617755,110.255081 14.189928,109.906761 13.762101,109.558449 
	C13.614834,109.793221 13.467566,110.027992 13.320299,110.262764 
	C13.956943,110.583168 14.593585,110.903564 15.293919,111.965645 
	C16.506844,114.293915 17.719770,116.622177 19.342642,119.375145 
	C20.349325,120.289078 21.356009,121.203011 21.949690,122.766556 
	C23.990391,125.848358 26.031092,128.930161 28.609892,131.882996 
	C29.771086,132.633514 30.932280,133.384033 32.257740,134.784607 
	C35.251904,136.611145 38.246067,138.437698 42.199944,140.849686 
	C43.227818,136.142471 43.815170,132.465897 44.903660,128.944229 
	C45.350891,127.497292 46.878075,126.384148 47.767918,125.573212 
	C47.767918,125.573212 47.958298,126.010536 47.899075,126.852852 
	C48.016453,128.251450 48.133827,129.650055 48.124290,131.862320 
	C48.339348,135.068451 48.554405,138.274597 48.811554,142.108292 
	C51.707314,142.108292 56.550705,143.506958 58.903675,141.686569 
	C60.960255,140.095490 60.214516,134.882202 60.763821,130.850677 
	C62.112827,131.052414 64.840431,130.929657 65.039841,131.580963 
	C65.960320,134.587311 66.177025,137.809128 66.642967,140.933365 
	C76.973450,138.610031 79.297318,136.632141 75.066925,127.109482 
	C74.136414,125.014893 72.143280,120.426384 77.856949,119.385635 
	C79.754097,119.040062 81.379166,117.200821 83.128624,116.044464 
	C83.391914,116.407875 83.655205,116.771286 83.918495,117.134697 
	C82.427010,119.051361 80.935524,120.968025 79.739372,122.505157 
	C81.010063,126.171150 82.144997,129.445480 83.385223,133.023575 
	C86.332176,130.802383 89.164955,128.667252 90.795135,127.438538 
	C89.677643,122.883072 88.814590,119.364845 88.607208,116.148766 
	C90.583221,118.571663 90.188599,123.217155 95.896019,123.203644 
M124.172363,241.193237 
	C124.960007,240.775589 126.250328,240.521729 126.448959,239.912155 
	C127.345757,237.159973 127.933533,234.307083 128.639633,231.491959 
	C114.118011,230.455292 112.454178,231.202988 110.310593,240.082275 
	C114.666367,240.444046 118.963623,240.800964 124.172363,241.193237 
M155.150970,229.644409 
	C154.352493,232.306992 153.554001,234.969589 152.439011,238.687622 
	C158.858109,236.658142 163.844696,235.081573 168.911469,233.479645 
	C168.911469,230.500137 168.911469,227.926483 168.911469,224.958542 
	C164.363556,226.353455 160.003860,227.690643 155.150970,229.644409 
M103.003510,229.470703 
	C94.185692,227.148163 92.242790,229.787643 91.326187,235.430634 
	C95.477776,236.557327 99.665627,237.693863 103.568481,238.753052 
	C105.145348,235.552628 106.426598,232.952179 107.763092,230.239624 
	C106.385696,230.031754 105.089844,229.836197 103.003510,229.470703 
M82.057274,231.806854 
	C86.719620,233.602020 86.178757,228.746613 88.650467,227.279388 
	C78.018295,222.955750 77.480698,222.981415 74.314095,227.944321 
	C76.672760,229.116867 79.010796,230.279160 82.057274,231.806854 
M183.224548,226.357788 
	C184.038239,224.080246 184.851929,221.802704 186.053238,218.440170 
	C174.946533,222.667267 174.063919,223.742279 175.511032,230.399750 
	C177.908264,229.173279 180.224213,227.988388 183.224548,226.357788 
M191.422882,217.855347 
	C191.379684,218.782852 191.336487,219.710358 191.286484,220.784149 
	C199.418320,216.611557 200.841873,214.769196 199.266968,209.348801 
	C196.527008,212.188507 194.116623,214.686646 191.422882,217.855347 
M65.777260,219.802917 
	C63.992821,219.126984 62.208382,218.451035 60.423946,217.775101 
	C66.491837,224.512741 68.057449,225.033401 71.040459,221.867722 
	C69.458664,221.226624 67.982269,220.628235 65.777260,219.802917 
M16.520330,108.610291 
	C16.464527,108.831810 16.408724,109.053337 16.352919,109.274857 
	C16.491180,109.132500 16.629442,108.990150 16.520330,108.610291 
z"/>
<path fill="#F6F6F6" opacity="1.000000" stroke="none" 
	d="
M251.000000,4.500000 
	C170.857452,4.979132 90.714912,4.957926 10.572372,4.945332 
	C10.090649,4.945256 9.608908,5.065322 8.813282,5.170964 
	C8.813282,85.725090 8.813282,166.239792 8.813282,247.301575 
	C89.264191,247.301575 169.684723,247.301575 250.552612,247.150787 
	C251.000000,248.332458 251.000000,249.664902 251.000000,250.998016 
	C167.722549,250.998688 84.445091,250.998688 1.083820,250.998688 
	C1.083820,167.777618 1.083820,84.555130 1.083820,1.166321 
	C84.333038,1.166321 167.666519,1.166321 251.000000,1.166321 
	C251.000000,2.001352 251.000000,3.000676 251.000000,4.500000 
z"/>
<path fill="#FAE82F" opacity="1.000000" stroke="none" 
	d="
M221.018921,187.871826 
	C219.743378,186.403427 218.243347,185.070480 217.253326,183.429794 
	C216.191528,181.670135 215.609360,179.621063 214.710007,177.436249 
	C209.486496,182.941299 209.833328,185.654343 216.436707,193.075821 
	C213.220871,195.667908 210.016953,198.250397 206.349411,200.576385 
	C204.925369,199.215439 203.964935,198.111008 202.962418,196.693817 
	C202.435394,195.482605 201.950470,194.584122 201.517731,193.664719 
	C201.569946,193.643784 201.587479,193.532669 201.540268,193.255371 
	C201.307022,192.652084 201.120987,192.326126 200.924805,191.623932 
	C200.187180,190.504974 199.459686,189.762253 198.732193,189.019531 
	C198.470016,189.999039 198.207855,190.978531 197.609451,192.096344 
	C197.205765,194.289230 197.138321,196.343826 197.114944,198.510315 
	C197.158997,198.622223 197.316071,198.804367 197.400482,199.075958 
	C198.085770,200.066208 198.686630,200.784882 199.277191,201.480316 
	C199.266876,201.457077 199.226196,201.497253 199.226196,201.497253 
	C200.268951,202.284332 201.311707,203.071411 202.848434,204.231369 
	C198.926590,206.819611 195.784164,208.893478 191.707489,211.583893 
	C189.454544,207.152390 187.358871,203.030258 185.265366,198.912354 
	C179.868912,202.774353 180.360092,207.293823 186.942780,213.691269 
	C185.943039,214.310333 185.051712,215.009918 184.048553,215.460526 
	C174.419144,219.785629 175.033691,221.692871 170.598450,210.973801 
	C170.021805,209.580170 168.218613,208.694061 166.891342,207.489166 
	C163.999695,212.607803 164.259247,214.132233 169.066177,221.685837 
	C166.482346,222.459396 164.011261,223.270691 161.501556,223.936523 
	C155.170166,225.616272 153.716904,224.597504 152.218246,217.827255 
	C151.495972,214.564362 150.583679,211.343506 149.271027,208.235306 
	C145.929092,220.197083 145.929092,220.197083 149.006851,226.523499 
	C147.149490,226.778244 145.407944,227.030502 143.662720,227.254196 
	C134.671906,228.406662 134.937332,228.047394 133.654190,218.762680 
	C132.807175,212.633743 134.123215,208.330917 139.409058,204.510101 
	C139.899948,203.778854 140.026596,203.465591 140.415375,203.070862 
	C140.781921,202.657928 140.886337,202.326416 141.214569,201.925140 
	C141.337753,201.686020 141.237137,201.516647 141.136505,201.347290 
	C141.125168,201.587051 141.113846,201.826813 140.824829,201.881561 
	C140.216980,201.982651 139.886795,202.268753 139.346619,202.634888 
	C138.877411,202.873932 138.660583,203.078018 138.486191,203.327179 
	C131.046768,208.435516 123.607330,213.543854 115.756821,218.934464 
	C115.464745,215.486496 115.244400,212.885361 114.934441,209.226318 
	C112.571823,212.600815 110.903687,214.983414 108.753372,217.516144 
	C106.065117,215.556122 103.943474,211.830704 101.633385,211.709930 
	C98.063133,211.523270 96.757271,210.003937 95.189156,207.542999 
	C94.660210,206.712906 93.082558,206.551056 91.845200,205.778320 
	C91.159363,204.851959 90.660545,204.179657 90.058632,203.617798 
	C76.660812,191.111511 66.763855,176.135529 59.342777,159.502808 
	C57.417370,155.187424 56.409691,150.462555 54.980476,145.925781 
	C56.697956,145.903458 58.415432,145.881119 60.693451,146.247711 
	C62.378170,148.264389 63.502350,149.892151 64.698669,151.803391 
	C65.185204,152.731232 65.599586,153.375595 66.038940,154.291565 
	C66.547798,155.088013 67.031693,155.612869 67.692993,156.433762 
	C68.819145,157.696884 69.767906,158.663956 70.903679,159.464676 
	C71.128212,159.137299 71.165741,158.976303 71.203262,158.815292 
	C71.040939,159.090469 70.878609,159.365662 71.032272,159.269440 
	C70.289108,154.853333 69.229958,150.808640 68.178291,146.753906 
	C68.185776,146.743866 68.209656,146.731934 68.209656,146.731934 
	C67.932365,146.151901 67.655067,145.571884 67.377777,144.991852 
	C70.848457,143.364639 74.224678,141.434372 77.850319,140.304337 
	C78.870247,139.986435 80.622223,142.017242 82.077728,143.675446 
	C81.390831,145.654099 80.623245,146.906464 79.945404,148.205673 
	C76.569023,154.677094 78.524117,164.085724 84.034447,167.988754 
	C84.731148,169.823593 85.427856,171.658432 86.124557,173.493271 
	C86.470818,173.467072 86.817078,173.440857 87.163338,173.414658 
	C86.435707,165.095917 85.708076,156.777191 84.942284,148.022186 
	C87.202301,148.939484 88.774338,149.577545 90.587936,150.313660 
	C89.894028,144.653259 88.423897,139.945129 83.557732,137.089157 
	C91.235237,130.444962 91.235237,130.444962 99.635864,135.102936 
	C101.255798,138.841522 102.087364,139.183350 104.041695,137.127823 
	C105.221710,137.497192 106.401733,137.866577 109.091713,138.708603 
	C106.873840,134.078308 105.237679,130.662445 103.493286,127.020645 
	C115.085098,125.207283 126.153275,126.969398 136.810608,132.288437 
	C139.823746,133.792297 143.357147,134.253723 146.724396,134.446167 
	C145.332825,128.545654 146.396957,123.719460 148.602310,119.002602 
	C149.201721,117.720589 149.512772,116.303741 149.956161,114.948784 
	C149.956161,114.948784 150.000000,114.999695 150.336823,115.013634 
	C151.428558,114.315430 152.183472,113.603279 152.938370,112.891129 
	C156.292053,111.352867 159.645752,109.814613 162.803665,108.366142 
	C160.070145,106.885162 157.445816,106.006714 155.573563,104.302193 
	C153.541397,102.452087 152.209137,99.833176 151.036041,97.293983 
	C151.990814,91.016113 145.071167,89.289886 142.858017,84.855957 
	C149.638397,75.632065 151.134201,76.198502 157.598190,81.493645 
	C158.557938,82.279846 160.229767,82.196800 161.572159,82.515900 
	C161.947678,81.977699 162.323181,81.439507 162.698700,80.901306 
	C160.410522,78.149017 158.122360,75.396721 155.400497,72.122787 
	C157.214874,70.452492 159.545547,67.489029 162.589249,65.848228 
	C164.122269,65.021805 167.115646,66.232368 169.152283,67.167389 
	C172.321869,68.622543 175.238831,70.627930 178.262878,72.400116 
	C178.702820,71.889236 179.142761,71.378357 179.582703,70.867477 
	C176.409943,67.197243 173.237183,63.527008 169.947266,59.721237 
	C176.224030,52.323479 178.583145,52.294914 185.161362,56.566914 
	C187.348312,57.987144 190.425293,58.036873 193.095367,58.713154 
	C193.283585,58.345955 193.471802,57.978752 193.660019,57.611553 
	C190.503403,54.708462 187.346802,51.805367 183.541916,48.306072 
	C186.828598,46.837250 190.070557,45.388412 193.969635,44.045830 
	C196.077179,45.853180 197.527603,47.554272 199.037415,49.583927 
	C202.401611,54.275158 205.706436,58.637825 208.976883,63.351677 
	C203.659378,71.357559 198.188950,78.891632 193.155624,86.707214 
	C189.489975,92.399094 186.152023,98.342438 183.215378,104.437416 
	C182.393585,106.143051 183.512390,108.783691 183.820007,111.423431 
	C183.925964,114.168274 183.952911,116.485107 183.680328,118.971725 
	C184.933289,126.062645 188.999588,131.209702 194.613739,135.340347 
	C195.308044,135.851181 195.487503,137.061737 195.531631,137.950485 
	C190.353867,140.033112 185.392883,141.828796 180.831421,144.347931 
	C179.236130,145.228958 178.624710,147.891479 177.563995,149.740479 
	C179.725006,149.654358 181.885986,149.568237 184.363678,149.306808 
	C184.812851,148.772995 184.945312,148.414505 185.040344,148.076416 
	C185.002930,148.096817 185.048981,148.168564 185.388947,148.390854 
	C188.463562,147.112122 191.474304,145.950424 193.854462,144.013733 
	C196.188721,142.114380 198.688095,139.680527 199.536606,136.984512 
	C200.003983,135.499512 197.223480,132.992340 195.571259,130.423630 
	C202.316345,130.959305 208.711380,131.616806 215.123276,131.939362 
	C223.558655,132.363708 226.389069,129.639954 226.841415,121.097092 
	C226.911285,119.777390 226.849045,118.450699 226.935486,116.799347 
	C227.400177,115.657181 227.777267,114.842911 228.385834,114.260040 
	C229.076660,118.066040 230.090378,121.670853 229.897583,125.209938 
	C229.142059,139.078308 228.005783,152.925949 227.010956,166.781281 
	C226.418930,169.206802 225.826920,171.632324 224.925934,174.711945 
	C223.939789,179.060760 223.262604,182.755478 222.585434,186.450195 
	C222.585434,186.450195 222.495575,186.450668 222.203445,186.440430 
	C221.613846,186.910751 221.316376,187.391296 221.018921,187.871826 
M190.235153,81.073265 
	C184.381287,86.915077 179.692551,93.413712 178.107025,101.661713 
	C178.491486,101.895622 178.875946,102.129539 179.260391,102.363449 
	C183.333435,95.396683 187.406464,88.429909 191.844910,81.025063 
	C191.805710,80.756668 191.766495,80.488274 191.727280,80.219879 
	C191.445129,80.438141 191.162979,80.656403 190.235153,81.073265 
M96.175255,149.803741 
	C95.739578,150.158173 95.303902,150.512589 94.212326,150.995880 
	C93.263237,151.885544 91.629913,152.668472 91.471863,153.681549 
	C90.035667,162.887024 89.469872,172.170425 93.035149,181.027420 
	C97.568031,192.288162 106.403458,199.053497 117.622826,202.828079 
	C126.515228,205.819778 132.533173,200.036331 138.573700,195.149597 
	C155.256775,181.653122 173.961288,173.017365 195.292908,169.778793 
	C200.536072,168.982773 205.694901,166.428482 210.428680,163.835709 
	C214.725693,161.482162 216.742950,157.058182 216.803955,152.054825 
	C216.854889,147.877991 214.965988,145.831757 210.999100,145.394775 
	C215.137222,153.247894 213.431885,158.834045 205.516464,163.029022 
	C203.911362,163.879684 202.182190,164.565445 200.435776,165.069107 
	C187.573792,168.778519 175.380478,167.637451 163.233673,161.487946 
	C152.749451,156.180161 141.864517,151.334442 130.668747,147.854294 
	C119.489311,144.379211 107.747955,143.578766 96.175255,149.803741 
M113.462090,137.304260 
	C113.271965,137.531769 113.052925,137.742355 112.905380,137.994751 
	C112.842781,138.101837 112.901260,138.421646 112.953514,138.433731 
	C117.151100,139.404297 121.137466,139.162216 124.557953,135.594131 
	C121.100151,136.106277 117.642357,136.618439 113.462090,137.304260 
z"/>
<path fill="#FCEA30" opacity="1.000000" stroke="none" 
	d="
M74.882263,21.773144 
	C92.382057,11.598440 111.469490,7.966389 131.436752,8.459974 
	C137.397049,8.607311 143.331512,9.799985 149.818970,10.998791 
	C158.367493,16.392874 166.436081,21.205933 174.351151,26.259459 
	C177.396179,28.203609 180.091721,30.695147 182.946503,32.937275 
	C183.395264,33.214497 183.844025,33.491718 184.573456,34.215435 
	C185.201065,35.373882 185.548019,36.085835 185.894958,36.797791 
	C185.600800,37.155075 184.976700,37.687229 185.060028,37.844452 
	C188.461838,44.263199 182.770096,45.294048 179.375931,47.786247 
	C175.133789,38.966175 174.701019,38.645851 166.957794,39.441433 
	C168.606003,41.634861 169.868607,43.394798 171.213257,45.089645 
	C175.241653,50.167229 175.185699,50.855648 170.144302,54.917915 
	C169.001389,55.838856 167.802216,56.690002 167.761520,56.720631 
	C164.809448,54.394924 162.427551,52.428783 159.925613,50.629570 
	C159.472717,50.303871 158.233582,50.395470 157.887222,50.776283 
	C157.493515,51.209137 157.448181,52.272747 157.678986,52.906429 
	C158.791809,55.961727 161.703827,59.587521 160.857346,61.836548 
	C159.658356,65.022141 155.695831,68.906075 153.453339,68.867943 
	C150.841782,68.823540 148.450684,65.397713 145.917389,63.622070 
	C145.459976,63.301468 144.224762,63.402126 143.884109,63.784874 
	C143.494659,64.222473 143.649292,65.194641 143.679077,65.930008 
	C143.690796,66.218903 144.020813,66.486839 144.178574,66.779045 
	C148.682648,75.121391 148.682068,75.121704 140.792908,81.003464 
	C135.759476,73.230240 130.529648,65.584702 125.742287,57.671486 
	C115.517906,40.771191 106.578712,44.486473 94.732513,53.208839 
	C93.288597,54.271992 92.200615,55.818565 90.615982,57.573700 
	C90.283195,58.248508 90.282112,58.490707 90.281021,58.732910 
	C90.622116,58.588184 90.963219,58.443462 91.304321,58.298740 
	C92.263382,57.573204 93.222443,56.847668 94.886902,56.012962 
	C111.241089,54.394794 117.972786,57.864998 123.011215,70.038300 
	C103.462715,69.299301 91.169083,78.968330 87.237335,98.285233 
	C86.689217,100.978210 86.566345,103.757751 86.589127,107.176620 
	C87.271606,110.519547 87.611572,113.183083 87.951546,115.846611 
	C88.814590,119.364845 89.677643,122.883072 90.795135,127.438538 
	C89.164955,128.667252 86.332176,130.802383 83.385223,133.023575 
	C82.144997,129.445480 81.010063,126.171150 79.739372,122.505157 
	C80.935524,120.968025 82.427010,119.051361 83.918495,117.134697 
	C83.655205,116.771286 83.391914,116.407875 83.128624,116.044464 
	C81.379166,117.200821 79.754097,119.040062 77.856949,119.385635 
	C72.143280,120.426384 74.136414,125.014893 75.066925,127.109482 
	C79.297318,136.632141 76.973450,138.610031 66.642967,140.933365 
	C66.177025,137.809128 65.960320,134.587311 65.039841,131.580963 
	C64.840431,130.929657 62.112827,131.052414 60.763821,130.850677 
	C60.214516,134.882202 60.960255,140.095490 58.903675,141.686569 
	C56.550705,143.506958 51.707314,142.108292 48.811554,142.108292 
	C48.554405,138.274597 48.339348,135.068451 48.542820,131.386261 
	C50.413643,128.911209 50.982906,127.093010 47.958298,126.010536 
	C47.958298,126.010536 47.767918,125.573212 48.060341,124.997620 
	C48.545475,122.959709 48.896637,121.498299 48.905010,120.034927 
	C48.956951,110.958397 48.461899,101.852249 49.023170,92.810234 
	C50.529598,68.541840 58.999584,46.640324 72.590393,26.604204 
	C73.579247,25.146399 74.128578,23.390467 74.882263,21.773144 
M76.015244,98.814926 
	C74.426468,97.143410 72.837692,95.471886 70.584183,93.101013 
	C71.131554,99.007706 73.848061,102.100113 78.328918,103.249649 
	C80.362305,103.771294 82.741577,102.944672 84.963943,102.729675 
	C84.887024,102.273369 84.810097,101.817062 84.733170,101.360764 
	C82.052765,100.637993 79.372353,99.915230 76.015244,98.814926 
z"/>
<path fill="#D5C528" opacity="1.000000" stroke="none" 
	d="
M54.605804,145.822052 
	C56.409691,150.462555 57.417370,155.187424 59.342777,159.502808 
	C66.763855,176.135529 76.660812,191.111511 90.058632,203.617798 
	C90.660545,204.179657 91.159363,204.851959 91.852570,206.192139 
	C92.009903,208.302917 92.020866,209.694366 92.031845,211.085815 
	C90.536964,214.833847 89.042084,218.581863 87.353439,222.815704 
	C78.972748,222.814270 77.257439,221.152557 77.187035,211.644821 
	C77.179695,210.653473 77.256531,209.588974 76.928459,208.692276 
	C76.578255,207.735062 75.955681,206.631790 75.132263,206.194916 
	C74.707428,205.969467 73.100517,206.885559 72.866928,207.571579 
	C71.780624,210.762100 70.987663,214.052490 70.073082,217.367508 
	C57.686504,215.048599 58.395023,213.384216 59.826828,202.071198 
	C59.605175,199.683792 59.291481,198.062225 58.876427,195.916718 
	C57.188850,198.460831 55.944477,200.336777 54.700104,202.212738 
	C53.863682,204.821869 53.027264,207.431000 51.997814,210.642288 
	C50.248676,209.445236 47.844818,208.330673 46.135384,206.549606 
	C25.061636,184.592865 14.408961,158.205475 13.243308,127.921806 
	C13.157426,125.690575 14.203562,123.415779 14.723419,121.161232 
	C15.295780,121.200668 15.868142,121.240097 16.440504,121.279533 
	C17.116188,127.668610 17.791870,134.057678 18.467554,140.446762 
	C18.831339,140.438507 19.195124,140.430267 19.558910,140.422012 
	C20.708363,137.584518 21.857817,134.747009 23.007271,131.909515 
	C23.572151,131.793655 24.137032,131.677795 24.701912,131.561920 
	C26.901377,138.582062 29.100843,145.602188 31.300308,152.622314 
	C31.714809,152.529907 32.129311,152.437515 32.543812,152.345108 
	C33.150917,148.527283 33.758022,144.709442 34.413452,140.587723 
	C39.676231,141.998322 43.657421,144.327118 44.337914,150.790222 
	C44.658085,153.831177 46.719505,156.688812 48.928692,159.356522 
	C49.186882,154.757645 49.445072,150.158768 49.715355,145.344513 
	C51.005863,145.451340 52.618496,145.584839 54.605804,145.822052 
z"/>
<path fill="#D5C528" opacity="1.000000" stroke="none" 
	d="
M74.525909,21.815928 
	C74.128578,23.390467 73.579247,25.146399 72.590393,26.604204 
	C58.999584,46.640324 50.529598,68.541840 49.023170,92.810234 
	C48.461899,101.852249 48.956951,110.958397 48.905010,120.034927 
	C48.896637,121.498299 48.545475,122.959709 48.133392,124.770599 
	C46.878075,126.384148 45.350891,127.497292 44.903660,128.944229 
	C43.815170,132.465897 43.227818,136.142471 42.199944,140.849686 
	C38.246067,138.437698 35.251904,136.611145 32.500732,134.312561 
	C37.044956,128.481247 37.292679,125.081955 33.761372,120.548141 
	C31.872620,124.353745 29.972204,128.182861 28.071791,132.011963 
	C26.031092,128.930161 23.990391,125.848358 22.487906,122.397690 
	C28.495523,117.481071 29.169613,114.483589 26.107452,106.462669 
	C23.564583,110.888573 21.248638,114.919510 18.932695,118.950447 
	C17.719770,116.622177 16.506844,114.293915 15.237123,111.529755 
	C15.180328,111.093872 15.301764,111.163208 15.301764,111.163208 
	C19.755878,111.283432 21.316772,108.033035 22.948299,103.945679 
	C23.079393,101.166039 23.079393,99.152931 23.079393,97.139816 
	C22.651752,97.034096 22.224112,96.928375 21.796469,96.822662 
	C20.917469,98.222900 20.038467,99.623146 18.959181,101.093613 
	C18.758896,101.163834 18.602459,101.558426 18.599113,101.617508 
	C18.595770,101.676582 18.699171,101.734138 18.406319,101.866692 
	C17.910555,102.568207 17.707644,103.137161 17.537951,103.779541 
	C17.571171,103.852966 17.720337,103.791924 17.325796,103.946648 
	C17.239208,104.621758 17.547161,105.142143 17.738045,105.671005 
	C17.620977,105.679474 17.468672,105.858109 17.468672,105.858109 
	C15.429743,105.287254 14.776647,104.279236 15.288183,101.954468 
	C23.082378,66.532402 42.193771,39.479820 74.525909,21.815928 
z"/>
<path fill="#F5F04E" opacity="1.000000" stroke="none" 
	d="
M209.011261,63.000496 
	C205.706436,58.637825 202.401611,54.275158 199.408722,49.632454 
	C201.615448,49.595142 203.510254,49.837872 204.851624,50.009705 
	C202.894562,47.641468 200.963150,45.304276 199.031723,42.967087 
	C199.603943,42.539997 200.246841,41.674622 200.737442,41.753723 
	C205.553940,42.530319 209.776154,43.827225 213.365402,47.962811 
	C243.455414,82.632713 249.401031,133.325745 231.589828,171.837509 
	C230.296036,170.244904 228.991943,168.639603 227.349396,166.907791 
	C228.005783,152.925949 229.142059,139.078308 229.897583,125.209938 
	C230.090378,121.670853 229.076660,118.066040 228.349579,113.876968 
	C228.254700,111.515732 228.427551,109.768967 228.752396,107.626442 
	C234.135513,95.251434 220.811523,70.084145 209.314072,70.545113 
	C210.743057,67.939240 212.108643,65.449005 213.685959,62.572639 
	C215.507034,65.367851 217.000107,67.659607 218.493179,69.951363 
	C218.883698,69.776756 219.274200,69.602150 219.664719,69.427544 
	C218.454071,66.470238 217.375351,63.447784 215.963959,60.589615 
	C215.443161,59.534973 213.974167,58.059937 213.229568,58.211426 
	C212.095306,58.442196 211.154953,59.868076 210.249695,60.890430 
	C209.719193,61.489578 209.416458,62.290398 209.011261,63.000496 
M231.070404,107.326187 
	C231.110413,108.139709 231.150406,108.953224 231.220474,110.377991 
	C236.098343,103.346931 236.433121,97.862198 232.538025,95.796417 
	C232.092468,99.362610 231.646912,102.928795 231.070404,107.326187 
z"/>
<path fill="#08F7E6" opacity="1.000000" stroke="none" 
	d="
M130.991074,89.001984 
	C132.975876,101.094101 131.919174,112.982941 129.008530,124.634491 
	C128.304688,124.814568 127.972878,125.014961 127.702454,124.951950 
	C117.751457,122.633659 117.725456,122.632561 116.868744,112.332504 
	C116.581093,108.874168 116.468025,105.401314 116.688995,101.486557 
	C118.408958,99.673454 119.605515,98.178398 121.043465,96.970779 
	C124.296082,94.239197 127.667801,91.649429 130.991074,89.001984 
z"/>
<path fill="#F3EF4E" opacity="1.000000" stroke="none" 
	d="
M182.717270,32.662926 
	C180.091721,30.695147 177.396179,28.203609 174.351151,26.259459 
	C166.436081,21.205933 158.367493,16.392874 150.157623,11.200262 
	C168.358917,15.287060 186.361267,20.364635 198.742538,37.850674 
	C195.565231,39.016575 193.609879,39.734085 192.314529,40.209404 
	C190.129547,36.753895 188.401276,33.441353 186.060883,30.640259 
	C185.264282,29.686829 182.926483,30.021111 180.026505,29.569998 
	C181.480530,31.234922 181.984283,31.811749 182.717270,32.662926 
z"/>
<path fill="#CACACA" opacity="1.000000" stroke="none" 
	d="
M88.279373,115.997688 
	C87.611572,113.183083 87.271606,110.519547 86.879898,107.436874 
	C88.546478,102.261642 89.820030,97.278770 92.099358,92.808739 
	C94.755783,87.599152 98.291687,82.838013 101.445969,77.882286 
	C101.939774,78.132652 102.433571,78.383018 102.927368,78.633385 
	C102.059158,83.176743 101.190941,87.720100 99.848007,92.771088 
	C98.572899,94.709427 97.664040,96.091019 96.990166,97.579025 
	C93.269089,105.795769 93.519562,114.341232 95.007172,122.975006 
	C90.188599,123.217155 90.583221,118.571663 88.279373,115.997688 
z"/>
<path fill="#108BB4" opacity="1.000000" stroke="none" 
	d="
M112.732849,97.944641 
	C113.305702,106.041458 113.878548,114.138283 114.457787,122.325417 
	C106.900894,124.586349 105.326004,123.926689 104.311501,116.141838 
	C103.501190,109.923904 103.647079,103.581352 103.769684,96.751770 
	C105.222427,96.173302 106.274033,96.137177 107.605553,96.263565 
	C109.501259,96.932274 111.117058,97.438461 112.732849,97.944641 
z"/>
<path fill="#CABB2B" opacity="1.000000" stroke="none" 
	d="
M123.330612,70.232887 
	C117.972786,57.864998 111.241089,54.394794 95.154236,55.864254 
	C103.485573,47.151237 112.929359,47.368607 120.580704,56.746391 
	C124.322693,61.332722 127.516899,66.365997 131.555725,72.034409 
	C128.217712,71.355919 125.933868,70.891693 123.330612,70.232887 
z"/>
<path fill="#D1C127" opacity="1.000000" stroke="none" 
	d="
M92.466187,211.034683 
	C92.020866,209.694366 92.009903,208.302917 91.991562,206.497635 
	C93.082558,206.551056 94.660210,206.712906 95.189156,207.542999 
	C96.757271,210.003937 98.063133,211.523270 101.633385,211.709930 
	C103.943474,211.830704 106.065117,215.556122 108.570755,217.805923 
	C108.870293,220.837769 108.870293,223.729965 108.870293,227.175797 
	C105.465622,226.674454 101.829453,226.440704 98.395897,225.481583 
	C97.064651,225.109711 95.577393,223.236115 95.252884,221.799973 
	C94.757462,219.607437 95.497787,217.156784 95.153313,214.901260 
	C94.941299,213.513062 93.686913,212.284042 92.466187,211.034683 
z"/>
<path fill="#F6F6F6" opacity="1.000000" stroke="none" 
	d="
M95.451599,123.089325 
	C93.519562,114.341232 93.269089,105.795769 96.990166,97.579025 
	C97.664040,96.091019 98.572899,94.709427 99.697250,93.134659 
	C100.395622,102.861786 100.770027,112.732979 101.167160,123.203644 
	C100.066246,123.203644 97.981133,123.203644 95.451599,123.089325 
z"/>
<path fill="#CDBE26" opacity="1.000000" stroke="none" 
	d="
M123.716629,241.175568 
	C118.963623,240.800964 114.666367,240.444046 110.310593,240.082275 
	C112.454178,231.202988 114.118011,230.455292 128.636139,231.491211 
	C127.933533,234.307083 127.345757,237.159973 126.448959,239.912155 
	C126.250328,240.521729 124.960007,240.775589 123.716629,241.175568 
z"/>
<path fill="#EFE02E" opacity="1.000000" stroke="none" 
	d="
M155.397568,229.336121 
	C160.003860,227.690643 164.363556,226.353455 168.911469,224.958542 
	C168.911469,227.926483 168.911469,230.500137 168.911469,233.479645 
	C163.844696,235.081573 158.858109,236.658142 152.439011,238.687622 
	C153.554001,234.969589 154.352493,232.306992 155.397568,229.336121 
z"/>
<path fill="#FAFBFB" opacity="1.000000" stroke="none" 
	d="
M116.008041,76.653381 
	C116.744141,76.780365 117.480247,76.907349 118.819916,77.279617 
	C120.499069,79.318520 121.574646,81.112137 122.476288,83.255508 
	C121.831116,87.953163 118.489403,89.044807 114.747925,89.883301 
	C113.670364,89.511703 112.881378,89.267105 111.988281,88.651413 
	C107.896782,82.170731 109.335953,78.113083 116.008041,76.653381 
z"/>
<path fill="#CDBE26" opacity="1.000000" stroke="none" 
	d="
M103.398750,229.555664 
	C105.089844,229.836197 106.385696,230.031754 107.763092,230.239624 
	C106.426598,232.952179 105.145348,235.552628 103.568481,238.753052 
	C99.665627,237.693863 95.477776,236.557327 91.326187,235.430634 
	C92.242790,229.787643 94.185692,227.148163 103.398750,229.555664 
z"/>
<path fill="#14224E" opacity="1.000000" stroke="none" 
	d="
M116.061646,76.330879 
	C109.335953,78.113083 107.896782,82.170731 111.628120,88.726196 
	C107.959061,90.276276 104.586487,91.404091 107.325645,96.101044 
	C106.274033,96.137177 105.222427,96.173302 103.792557,96.311737 
	C104.971268,89.625458 106.090340,82.682243 108.394386,76.157471 
	C108.967445,74.534637 113.370911,74.264420 116.013763,73.372482 
	C116.047592,74.251114 116.081421,75.129745 116.061646,76.330879 
z"/>
<path fill="#C7C7C7" opacity="1.000000" stroke="none" 
	d="
M141.083984,98.023048 
	C140.716858,94.894341 140.349747,91.765625 139.813400,87.194626 
	C145.009308,94.852859 149.455353,101.405869 153.929947,108.000969 
	C151.824661,109.298599 149.742722,110.581825 147.323349,111.446777 
	C147.092407,105.752251 145.032257,101.459229 141.083984,98.023048 
z"/>
<path fill="#F4F4F4" opacity="1.000000" stroke="none" 
	d="
M141.028519,98.482422 
	C145.032257,101.459229 147.092407,105.752251 146.973495,111.437584 
	C144.362991,115.693039 141.764893,119.539398 139.129868,123.440460 
	C139.767578,114.964409 140.370316,106.953110 141.028519,98.482422 
z"/>
<path fill="#C4B62A" opacity="1.000000" stroke="none" 
	d="
M84.082520,167.559677 
	C78.524117,164.085724 76.569023,154.677094 79.945404,148.205673 
	C80.623245,146.906464 81.390831,145.654099 82.200241,143.994232 
	C82.671188,144.601822 83.352333,145.581635 83.399323,146.590958 
	C83.717918,153.434021 83.902618,160.283325 84.082520,167.559677 
z"/>
<path fill="#F6E62F" opacity="1.000000" stroke="none" 
	d="
M134.888809,233.831696 
	C138.228653,228.538605 143.748322,231.622437 148.206680,229.649185 
	C147.773300,232.444489 146.993896,234.569687 147.239487,236.568985 
	C147.606323,239.555359 146.108597,239.914185 143.386841,239.533478 
	C140.225342,237.392014 137.557083,235.611847 134.888809,233.831696 
z"/>
<path fill="#07D8C8" opacity="1.000000" stroke="none" 
	d="
M131.059662,88.628159 
	C127.667801,91.649429 124.296082,94.239197 121.043465,96.970779 
	C119.605515,98.178398 118.408958,99.673454 116.767349,101.051834 
	C116.284302,99.342972 116.136711,97.620285 115.939926,95.425232 
	C115.890732,94.952866 115.979500,94.933510 116.344269,94.948257 
	C117.802986,93.970406 118.896935,92.977806 120.034569,91.644897 
	C121.712471,89.865181 123.346680,88.425774 125.321411,86.956589 
	C126.449722,85.962341 127.237511,84.997856 128.389664,84.010727 
	C129.239456,83.952042 129.724884,83.915985 130.210312,83.879929 
	C130.516296,85.338066 130.822281,86.796204 131.059662,88.628159 
z"/>
<path fill="#261005" opacity="1.000000" stroke="none" 
	d="
M19.137669,119.162796 
	C21.248638,114.919510 23.564583,110.888573 26.107452,106.462669 
	C29.169613,114.483589 28.495523,117.481071 22.694407,122.072876 
	C21.356009,121.203011 20.349325,120.289078 19.137669,119.162796 
z"/>
<path fill="#C9BA25" opacity="1.000000" stroke="none" 
	d="
M81.703049,231.624146 
	C79.010796,230.279160 76.672760,229.116867 74.314095,227.944321 
	C77.480698,222.981415 78.018295,222.955750 88.650467,227.279388 
	C86.178757,228.746613 86.719620,233.602020 81.703049,231.624146 
z"/>
<path fill="#F3E52F" opacity="1.000000" stroke="none" 
	d="
M182.882355,226.580643 
	C180.224213,227.988388 177.908264,229.173279 175.511032,230.399750 
	C174.063919,223.742279 174.946533,222.667267 186.053238,218.440170 
	C184.851929,221.802704 184.038239,224.080246 182.882355,226.580643 
z"/>
<path fill="#C1B324" opacity="1.000000" stroke="none" 
	d="
M149.626984,115.039162 
	C149.512772,116.303741 149.201721,117.720589 148.602310,119.002602 
	C146.396957,123.719460 145.332825,128.545654 146.679688,134.132111 
	C144.388229,133.085281 142.213913,131.605423 139.355911,129.660233 
	C142.708313,124.760490 146.003052,119.945015 149.626984,115.039162 
z"/>
<path fill="#F0F2F4" opacity="1.000000" stroke="none" 
	d="
M107.605553,96.263573 
	C104.586487,91.404091 107.959061,90.276276 111.732224,89.097290 
	C112.881378,89.267105 113.670364,89.511703 114.731186,90.185776 
	C115.376778,91.087883 115.750534,91.560524 116.084297,92.393867 
	C116.022713,93.480881 116.001106,94.207199 115.979500,94.933510 
	C115.979500,94.933510 115.890732,94.952866 115.876465,94.996017 
	C114.956001,95.847343 114.049812,96.655510 112.938240,97.704163 
	C111.117058,97.438461 109.501259,96.932274 107.605553,96.263573 
z"/>
<path fill="#F2E22E" opacity="1.000000" stroke="none" 
	d="
M127.655228,223.074814 
	C128.125427,224.625732 128.595612,226.176651 129.121368,227.910812 
	C125.248436,227.910812 121.648170,228.087341 118.073219,227.862137 
	C114.348381,227.627518 115.187286,224.619125 115.742722,222.224670 
	C120.141823,222.483658 123.898529,222.779236 127.655228,223.074814 
z"/>
<path fill="#C5B72A" opacity="1.000000" stroke="none" 
	d="
M127.693619,222.647675 
	C123.898529,222.779236 120.141823,222.483658 116.059311,221.990692 
	C119.944275,219.417419 124.155045,217.041534 128.706253,214.473572 
	C128.324738,217.507278 128.028366,219.863907 127.693619,222.647675 
z"/>
<path fill="#271205" opacity="1.000000" stroke="none" 
	d="
M28.340839,131.947479 
	C29.972204,128.182861 31.872620,124.353745 33.761372,120.548141 
	C37.292679,125.081955 37.044956,128.481247 32.418602,133.987518 
	C30.932280,133.384033 29.771086,132.633514 28.340839,131.947479 
z"/>
<path fill="#12B2A7" opacity="1.000000" stroke="none" 
	d="
M116.124283,92.033157 
	C115.750534,91.560524 115.376778,91.087883 115.019760,90.312775 
	C118.489403,89.044807 121.831116,87.953163 122.770874,83.175262 
	C124.928299,81.423615 126.617210,80.101967 128.306122,78.780304 
	C128.965195,80.232384 129.624268,81.684464 130.246826,83.508240 
	C129.724884,83.915985 129.239456,83.952042 128.047760,84.035187 
	C126.554619,85.050301 125.767754,86.018333 124.980881,86.986359 
	C123.346680,88.425774 121.712471,89.865181 119.648026,91.647369 
	C118.186615,92.004486 117.155449,92.018822 116.124283,92.033157 
z"/>
<path fill="#1181AD" opacity="1.000000" stroke="none" 
	d="
M137.037354,94.967178 
	C138.723999,102.839188 137.269455,110.408554 135.551544,117.952545 
	C135.138870,117.927856 134.726212,117.903168 134.313538,117.878471 
	C134.639709,110.648567 134.965897,103.418655 135.576660,95.669250 
	C136.253296,95.088898 136.645325,95.028038 137.037354,94.967178 
z"/>
<path fill="#088179" opacity="1.000000" stroke="none" 
	d="
M128.263565,78.389206 
	C126.617210,80.101967 124.928299,81.423615 122.944809,82.825516 
	C121.574646,81.112137 120.499069,79.318520 119.199188,77.257553 
	C120.527260,75.996788 122.016571,74.326622 123.647362,74.174644 
	C125.878616,73.966721 128.444183,74.651802 128.263565,78.389206 
z"/>
<path fill="#E6DA2C" opacity="1.000000" stroke="none" 
	d="
M191.564560,217.520065 
	C194.116623,214.686646 196.527008,212.188507 199.266968,209.348801 
	C200.841873,214.769196 199.418320,216.611557 191.286484,220.784149 
	C191.336487,219.710358 191.379684,218.782852 191.564560,217.520065 
z"/>
<path fill="#2A0F06" opacity="1.000000" stroke="none" 
	d="
M197.945694,191.958038 
	C198.207855,190.978531 198.470016,189.999039 198.732193,189.019531 
	C199.459686,189.762253 200.187180,190.504974 200.706787,191.807770 
	C200.861771,192.756119 201.224625,193.144394 201.587463,193.532684 
	C201.587479,193.532669 201.569946,193.643784 201.372269,194.027374 
	C201.784576,195.276154 202.394547,196.141373 203.004517,197.006577 
	C203.964935,198.111008 204.925369,199.215439 206.015945,200.607574 
	C204.099762,201.026733 202.053421,201.158173 199.616638,201.393433 
	C199.226196,201.497253 199.266876,201.457077 199.421799,201.122498 
	C198.823166,200.126740 198.069611,199.465561 197.316071,198.804382 
	C197.316071,198.804367 197.158997,198.622223 197.433746,198.232849 
	C197.787552,195.881668 197.866623,193.919861 197.945694,191.958038 
z"/>
<path fill="#221305" opacity="1.000000" stroke="none" 
	d="
M54.837074,202.589508 
	C55.944477,200.336777 57.188850,198.460831 58.876427,195.916718 
	C59.291481,198.062225 59.605175,199.683792 59.795708,201.669525 
	C58.833122,205.304703 57.993698,208.575699 57.154270,211.846710 
	C56.870495,211.967941 56.586720,212.089188 56.302940,212.210434 
	C56.131439,210.055176 56.018021,207.892960 55.761723,205.747833 
	C55.648804,204.802765 55.245506,203.892395 54.837074,202.589508 
z"/>
<path fill="#CDBE26" opacity="1.000000" stroke="none" 
	d="
M134.568848,234.065903 
	C137.557083,235.611847 140.225342,237.392014 142.963486,239.509552 
	C139.703873,240.332047 136.374390,240.817169 132.130264,241.435562 
	C133.006653,238.483917 133.627777,236.392014 134.568848,234.065903 
z"/>
<path fill="#34200C" opacity="1.000000" stroke="none" 
	d="
M198.857925,43.216469 
	C200.963150,45.304276 202.894562,47.641468 204.851624,50.009705 
	C203.510254,49.837872 201.615448,49.595142 199.349335,49.303886 
	C197.527603,47.554272 196.077179,45.853180 194.305634,44.005718 
	C195.551056,43.728184 197.117584,43.597019 198.857925,43.216469 
z"/>
<path fill="#2F1106" opacity="1.000000" stroke="none" 
	d="
M64.626526,151.519928 
	C63.502350,149.892151 62.378170,148.264389 61.114918,146.338562 
	C62.151539,145.968887 63.346771,145.735321 64.497078,145.874115 
	C65.516434,145.997131 66.485840,146.534088 67.843475,146.810120 
	C68.209656,146.731934 68.185776,146.743866 68.125626,147.180756 
	C67.882179,150.457672 67.698883,153.297699 67.515594,156.137726 
	C67.031693,155.612869 66.547798,155.088013 66.275925,154.173828 
	C66.430305,152.722198 66.372673,151.659897 66.315033,150.597580 
	C65.752205,150.905029 65.189362,151.212479 64.626526,151.519928 
z"/>
<path fill="#F0EC4B" opacity="1.000000" stroke="none" 
	d="
M222.850235,186.264938 
	C223.262604,182.755478 223.939789,179.060760 224.920868,175.116455 
	C230.096985,179.653503 226.389801,182.825912 222.850235,186.264938 
z"/>
<path fill="#0B2A4D" opacity="1.000000" stroke="none" 
	d="
M137.082947,94.533508 
	C136.645325,95.028038 136.253296,95.088898 135.572754,95.219635 
	C134.590103,89.903175 133.895981,84.516838 133.201859,79.130508 
	C133.599533,79.052246 133.997208,78.973984 134.394882,78.895721 
	C135.306107,83.963760 136.217331,89.031799 137.082947,94.533508 
z"/>
<path fill="#C4B524" opacity="1.000000" stroke="none" 
	d="
M66.141571,219.916382 
	C67.982269,220.628235 69.458664,221.226624 71.040459,221.867722 
	C68.057449,225.033401 66.491837,224.512741 60.423946,217.775101 
	C62.208382,218.451035 63.992821,219.126984 66.141571,219.916382 
z"/>
<path fill="#281406" opacity="1.000000" stroke="none" 
	d="
M19.159466,101.023384 
	C20.038467,99.623146 20.917469,98.222900 21.796469,96.822662 
	C22.224112,96.928375 22.651752,97.034096 23.079393,97.139816 
	C23.079393,99.152931 23.079393,101.166039 22.960583,103.595810 
	C21.309944,104.665436 19.778116,105.318398 17.857479,105.914734 
	C17.468672,105.858109 17.620977,105.679474 17.739697,105.199081 
	C17.812387,104.409760 17.766363,104.100838 17.720337,103.791924 
	C17.720337,103.791924 17.571171,103.852966 17.893383,103.738525 
	C18.376789,102.994110 18.537981,102.364120 18.699171,101.734138 
	C18.699171,101.734138 18.595770,101.676582 18.851700,101.734451 
	C19.434126,101.792618 19.760618,101.792915 20.087112,101.793221 
	C19.777895,101.536613 19.468679,101.279999 19.159466,101.023384 
z"/>
<path fill="#B9AD23" opacity="1.000000" stroke="none" 
	d="
M103.740463,136.971649 
	C102.087364,139.183350 101.255798,138.841522 100.018150,135.134460 
	C101.125999,135.455170 102.282608,136.135330 103.740463,136.971649 
z"/>
<path fill="#470908" opacity="1.000000" stroke="none" 
	d="
M186.020233,37.026833 
	C185.548019,36.085835 185.201065,35.373882 184.819458,34.357780 
	C186.245163,34.730595 187.705490,35.407562 189.165833,36.084530 
	C189.018890,36.474979 188.871948,36.865429 188.725006,37.255878 
	C187.865158,37.255878 187.005325,37.255878 186.020233,37.026833 
z"/>
<path fill="#D5C528" opacity="1.000000" stroke="none" 
	d="
M47.928688,126.431694 
	C50.982906,127.093010 50.413643,128.911209 48.606277,130.979416 
	C48.133827,129.650055 48.016453,128.251450 47.928688,126.431694 
z"/>
<path fill="#C1B324" opacity="1.000000" stroke="none" 
	d="
M152.611084,112.886940 
	C152.183472,113.603279 151.428558,114.315430 150.311310,114.991791 
	C150.727234,114.264923 151.505508,113.573837 152.611084,112.886940 
z"/>
<path fill="#281406" opacity="1.000000" stroke="none" 
	d="
M15.205278,111.158920 
	C14.593585,110.903564 13.956943,110.583168 13.320299,110.262764 
	C13.467566,110.027992 13.614834,109.793221 13.762101,109.558449 
	C14.189928,109.906761 14.617755,110.255081 15.173673,110.883301 
	C15.301764,111.163208 15.180328,111.093872 15.205278,111.158920 
z"/>
<path fill="#F0EC4B" opacity="1.000000" stroke="none" 
	d="
M221.278244,187.822998 
	C221.316376,187.391296 221.613846,186.910751 222.213531,186.484222 
	C222.189697,186.950226 221.863632,187.362213 221.278244,187.822998 
z"/>
<path fill="#281406" opacity="1.000000" stroke="none" 
	d="
M16.644016,108.729042 
	C16.629442,108.990150 16.491180,109.132500 16.352919,109.274857 
	C16.408724,109.053337 16.464527,108.831810 16.644016,108.729042 
z"/>
<path fill="#0D110C" opacity="1.000000" stroke="none" 
	d="
M208.976898,63.351681 
	C209.416458,62.290398 209.719193,61.489578 210.249695,60.890430 
	C211.154953,59.868076 212.095306,58.442196 213.229568,58.211426 
	C213.974167,58.059937 215.443161,59.534973 215.963959,60.589615 
	C217.375351,63.447784 218.454071,66.470238 219.664719,69.427544 
	C219.274200,69.602150 218.883698,69.776756 218.493179,69.951363 
	C217.000107,67.659607 215.507034,65.367851 213.685959,62.572639 
	C212.108643,65.449005 210.743057,67.939240 209.314072,70.545113 
	C220.811523,70.084145 234.135513,95.251434 228.366180,107.547218 
	C227.550339,106.498016 226.957413,105.111145 227.047363,103.770073 
	C227.548798,96.294357 224.701324,89.870415 220.963547,83.721451 
	C220.480698,82.927132 219.500610,82.435066 217.679520,80.899826 
	C221.634918,95.756607 221.465897,109.329216 219.012054,123.293915 
	C218.568848,125.178688 218.263412,126.711998 217.878525,128.644043 
	C222.689880,128.346680 222.972351,125.253029 223.405182,121.866882 
	C224.680878,120.113670 225.764389,118.620453 226.847900,117.127235 
	C226.849045,118.450699 226.911285,119.777390 226.841415,121.097092 
	C226.389069,129.639954 223.558655,132.363708 215.123276,131.939362 
	C208.711380,131.616806 202.316345,130.959305 195.571259,130.423630 
	C197.223480,132.992340 200.003983,135.499512 199.536606,136.984512 
	C198.688095,139.680527 196.188721,142.114380 193.854462,144.013733 
	C191.474304,145.950424 188.463562,147.112122 185.314331,148.033508 
	C188.568359,144.285263 192.236938,141.116653 195.905518,137.948059 
	C195.487503,137.061737 195.308044,135.851181 194.613739,135.340347 
	C188.999588,131.209702 184.933289,126.062645 184.005280,119.132446 
	C185.890640,121.112495 187.151489,123.101593 188.978287,125.983482 
	C188.044739,117.489059 187.249283,110.251022 186.453827,103.012993 
	C186.078262,103.015930 185.702682,103.018875 185.327118,103.021820 
	C184.798416,105.679688 184.269699,108.337555 183.740997,110.995422 
	C183.512390,108.783691 182.393585,106.143051 183.215378,104.437416 
	C186.152023,98.342438 189.489975,92.399094 193.155624,86.707214 
	C198.188950,78.891632 203.659378,71.357559 208.976898,63.351681 
M201.171387,82.975723 
	C201.056442,84.969803 200.941513,86.963890 200.556290,89.213905 
	C200.556290,89.213905 200.567505,89.585976 199.864273,89.603767 
	C198.929276,89.680435 197.994293,89.757111 197.001816,89.245766 
	C196.319183,89.102211 195.250290,88.605492 195.010956,88.867256 
	C190.226822,94.099777 190.392410,100.526604 190.886444,107.912376 
	C191.522263,114.277908 192.158096,120.643440 192.816406,127.234093 
	C195.842117,127.026306 197.769211,126.893974 199.730881,126.759262 
	C198.969223,121.058266 198.266449,115.798111 197.995361,110.133141 
	C198.692627,109.426025 199.389877,108.718910 200.770996,108.466972 
	C201.336884,112.908714 202.124283,117.336197 202.411407,121.795883 
	C202.754059,127.118408 205.634308,128.411606 210.726410,127.545868 
	C212.566025,115.380066 212.870468,103.208557 211.147659,90.168694 
	C210.687241,87.479790 210.226837,84.790878 209.815063,81.328384 
	C209.221359,79.162788 208.627670,76.997192 208.033966,74.831604 
	C207.465317,74.608627 206.896667,74.385651 206.328003,74.162674 
	C204.685989,76.825417 203.043976,79.488152 201.171387,82.975723 
M217.972595,105.500092 
	C217.294312,100.527748 216.616028,95.555412 215.937729,90.583069 
	C215.708954,90.648544 215.480179,90.714020 215.251404,90.779495 
	C215.251404,98.911308 215.251404,107.043121 215.251404,115.174942 
	C215.724228,115.222946 216.197037,115.270958 216.669861,115.318970 
	C217.103806,112.344963 217.537766,109.370964 217.972595,105.500092 
z"/>
<path fill="#16130B" opacity="1.000000" stroke="none" 
	d="
M96.744652,149.683640 
	C107.747955,143.578766 119.489311,144.379211 130.668747,147.854294 
	C141.864517,151.334442 152.749451,156.180161 163.233673,161.487946 
	C175.380478,167.637451 187.573792,168.778519 200.435776,165.069107 
	C202.182190,164.565445 203.911362,163.879684 205.516464,163.029022 
	C213.431885,158.834045 215.137222,153.247894 210.999100,145.394775 
	C214.965988,145.831757 216.854889,147.877991 216.803955,152.054825 
	C216.742950,157.058182 214.725693,161.482162 210.428680,163.835709 
	C205.694901,166.428482 200.536072,168.982773 195.292908,169.778793 
	C173.961288,173.017365 155.256775,181.653122 138.573700,195.149597 
	C132.533173,200.036331 126.515228,205.819778 117.622826,202.828079 
	C106.403458,199.053497 97.568031,192.288162 93.035149,181.027420 
	C89.469872,172.170425 90.035667,162.887024 91.471863,153.681549 
	C91.629913,152.668472 93.263237,151.885544 94.731926,151.112610 
	C95.380096,151.349289 95.508659,151.469223 95.486404,151.864746 
	C95.186516,152.741562 95.037430,153.342758 94.637695,154.228546 
	C94.604736,155.757996 94.822426,157.002899 95.023697,158.581299 
	C95.011223,159.360184 95.015167,159.805527 94.848770,160.614395 
	C91.717972,170.349777 94.303513,174.635574 103.730881,175.973541 
	C104.389618,176.067032 105.052795,176.147125 105.716652,176.183945 
	C113.324585,176.605896 120.933037,177.018265 128.541367,177.433167 
	C126.832169,178.320724 125.103149,178.909073 123.329475,179.117554 
	C116.564316,179.912735 109.777374,180.525146 103.016792,181.354446 
	C101.649284,181.522202 99.373978,182.167725 99.249832,182.890564 
	C99.018623,184.236755 99.631584,186.284775 100.649628,187.189468 
	C104.467506,190.582275 108.543983,193.694092 112.641312,196.753494 
	C113.411560,197.328629 115.048111,197.702515 115.727783,197.277771 
	C119.073135,195.187210 122.132904,197.270126 125.322693,197.434479 
	C127.253365,197.533936 129.857407,197.045273 131.056595,195.777863 
	C132.642227,194.102066 133.143387,191.402985 134.128937,189.151749 
	C134.215775,188.953400 134.437729,188.814209 134.806107,188.428528 
	C134.995697,189.991867 135.158325,191.332870 135.338531,192.818878 
	C143.235458,187.509903 150.755630,182.454208 158.567978,177.202087 
	C156.598221,177.014832 154.993759,176.862305 153.389282,176.709778 
	C153.370285,176.491837 153.351273,176.273911 153.332275,176.055984 
	C158.535645,174.998764 163.738998,173.941544 169.308151,172.880432 
	C171.872665,172.081879 174.071381,171.287247 175.951431,170.607788 
	C166.621399,166.162689 157.290726,161.672180 147.919312,157.268295 
	C141.662247,154.327927 136.958588,156.485153 134.663025,163.027481 
	C133.253937,161.306458 132.188828,159.618454 131.138947,157.633728 
	C131.200562,156.945419 131.246964,156.553833 131.584213,156.290833 
	C136.013458,159.701416 136.427032,154.586197 139.390259,153.691422 
	C125.133865,147.887039 111.472038,144.844864 97.051361,150.067825 
	C96.948807,149.940018 96.744652,149.683640 96.744652,149.683640 
z"/>
<path fill="#F4F4F3" opacity="1.000000" stroke="none" 
	d="
M219.149826,122.942474 
	C221.465897,109.329216 221.634918,95.756607 217.679520,80.899826 
	C219.500610,82.435066 220.480698,82.927132 220.963547,83.721451 
	C224.701324,89.870415 227.548798,96.294357 227.047363,103.770073 
	C226.957413,105.111145 227.550339,106.498016 228.214172,107.942970 
	C228.427551,109.768967 228.254700,111.515732 228.118118,113.645576 
	C227.777267,114.842911 227.400177,115.657181 226.935486,116.799347 
	C225.764389,118.620453 224.680878,120.113670 223.054840,121.863808 
	C221.391479,122.394638 220.270645,122.668556 219.149826,122.942474 
z"/>
<path fill="#C1B224" opacity="1.000000" stroke="none" 
	d="
M195.531616,137.950470 
	C192.236938,141.116653 188.568359,144.285263 184.974365,147.811218 
	C185.048981,148.168564 185.002930,148.096817 184.747528,147.949997 
	C184.343735,148.362823 184.195358,148.922470 184.046982,149.482117 
	C181.885986,149.568237 179.725006,149.654358 177.563995,149.740479 
	C178.624710,147.891479 179.236130,145.228958 180.831421,144.347931 
	C185.392883,141.828796 190.353867,140.033112 195.531616,137.950470 
z"/>
<path fill="#1B1905" opacity="1.000000" stroke="none" 
	d="
M191.479492,81.463142 
	C187.406464,88.429909 183.333435,95.396683 179.260391,102.363449 
	C178.875946,102.129539 178.491486,101.895622 178.107025,101.661713 
	C179.692551,93.413712 184.381287,86.915077 190.705093,81.123695 
	C191.175034,81.174126 191.479492,81.463142 191.479492,81.463142 
z"/>
<path fill="#DFDFDF" opacity="1.000000" stroke="none" 
	d="
M183.820007,111.423431 
	C184.269699,108.337555 184.798416,105.679688 185.327118,103.021820 
	C185.702682,103.018875 186.078262,103.015930 186.453827,103.012993 
	C187.249283,110.251022 188.044739,117.489059 188.978287,125.983482 
	C187.151489,123.101593 185.890640,121.112495 184.304825,118.962662 
	C183.952911,116.485107 183.925964,114.168274 183.820007,111.423431 
z"/>
<path fill="#2F2B09" opacity="1.000000" stroke="none" 
	d="
M113.823318,137.217422 
	C117.642357,136.618439 121.100151,136.106277 124.557953,135.594131 
	C121.137466,139.162216 117.151100,139.404297 112.953514,138.433731 
	C112.901260,138.421646 112.842781,138.101837 112.905380,137.994751 
	C113.052925,137.742355 113.271965,137.531769 113.823318,137.217422 
z"/>
<path fill="#070503" opacity="1.000000" stroke="none" 
	d="
M67.692986,156.433762 
	C67.698883,153.297699 67.882179,150.457672 68.118134,147.190796 
	C69.229958,150.808640 70.289108,154.853333 71.045013,159.230133 
	C70.741768,159.562256 70.716667,159.631042 70.716667,159.631042 
	C69.767906,158.663956 68.819145,157.696884 67.692986,156.433762 
z"/>
<path fill="#070503" opacity="1.000000" stroke="none" 
	d="
M197.609451,192.096344 
	C197.866623,193.919861 197.787552,195.881668 197.389679,198.120956 
	C197.138321,196.343826 197.205765,194.289230 197.609451,192.096344 
z"/>
<path fill="#070503" opacity="1.000000" stroke="none" 
	d="
M64.698669,151.803391 
	C65.189362,151.212479 65.752205,150.905029 66.315033,150.597580 
	C66.372673,151.659897 66.430305,152.722198 66.250961,153.902252 
	C65.599586,153.375595 65.185204,152.731232 64.698669,151.803391 
z"/>
<path fill="#070503" opacity="1.000000" stroke="none" 
	d="
M202.962418,196.693817 
	C202.394547,196.141373 201.784576,195.276154 201.320068,194.048309 
	C201.950470,194.584122 202.435394,195.482605 202.962418,196.693817 
z"/>
<path fill="#070503" opacity="1.000000" stroke="none" 
	d="
M197.400482,199.075958 
	C198.069611,199.465561 198.823166,200.126740 199.432098,201.145721 
	C198.686630,200.784882 198.085770,200.066208 197.400482,199.075958 
z"/>
<path fill="#16130B" opacity="1.000000" stroke="none" 
	d="
M95.059875,151.048187 
	C95.303902,150.512589 95.739578,150.158173 96.459953,149.743683 
	C96.744652,149.683640 96.948807,149.940018 96.950386,150.312866 
	C96.513718,150.986877 96.075462,151.288010 95.637207,151.589142 
	C95.508659,151.469223 95.380096,151.349289 95.059875,151.048187 
z"/>
<path fill="#070503" opacity="1.000000" stroke="none" 
	d="
M201.540253,193.255371 
	C201.224625,193.144394 200.861771,192.756119 200.716934,192.183990 
	C201.120987,192.326126 201.307022,192.652084 201.540253,193.255371 
z"/>
<path fill="#0D110C" opacity="1.000000" stroke="none" 
	d="
M184.363678,149.306808 
	C184.195358,148.922470 184.343735,148.362823 184.784943,147.929596 
	C184.945312,148.414505 184.812851,148.772995 184.363678,149.306808 
z"/>
<path fill="#070503" opacity="1.000000" stroke="none" 
	d="
M70.729019,159.601562 
	C70.878609,159.365662 71.040939,159.090469 71.203262,158.815292 
	C71.165741,158.976303 71.128212,159.137299 70.903679,159.464676 
	C70.716667,159.631042 70.741768,159.562256 70.729019,159.601562 
z"/>
<path fill="#1B1905" opacity="1.000000" stroke="none" 
	d="
M191.027924,81.024399 
	C191.162979,80.656403 191.445129,80.438141 191.727280,80.219879 
	C191.766495,80.488274 191.805710,80.756668 191.662201,81.244102 
	C191.479492,81.463142 191.175034,81.174126 191.027924,81.024399 
z"/>
<path fill="#070503" opacity="1.000000" stroke="none" 
	d="
M138.680176,203.577942 
	C138.660583,203.078018 138.877411,202.873932 139.495316,202.785492 
	C139.853989,202.856064 140.153259,203.152313 140.153259,203.152313 
	C140.026596,203.465591 139.899948,203.778854 139.534058,204.197647 
	C139.154617,204.145004 139.014389,203.986862 138.680176,203.577942 
z"/>
<path fill="#070503" opacity="1.000000" stroke="none" 
	d="
M140.990768,201.994919 
	C140.886337,202.326416 140.781921,202.657928 140.415375,203.070862 
	C140.153259,203.152313 139.853989,202.856064 139.705292,202.705460 
	C139.886795,202.268753 140.216980,201.982651 140.796112,201.864868 
	C141.045074,202.033173 140.990768,201.994919 140.990768,201.994919 
z"/>
<path fill="#070503" opacity="1.000000" stroke="none" 
	d="
M141.073792,202.049866 
	C141.113846,201.826813 141.125168,201.587051 141.136505,201.347290 
	C141.237137,201.516647 141.337753,201.686020 141.214569,201.925140 
	C140.990768,201.994919 141.045074,202.033173 141.073792,202.049866 
z"/>
<path fill="#201D06" opacity="1.000000" stroke="none" 
	d="
M76.353592,99.003693 
	C79.372353,99.915230 82.052765,100.637993 84.733170,101.360764 
	C84.810097,101.817062 84.887024,102.273369 84.963943,102.729675 
	C82.741577,102.944672 80.362305,103.771294 78.328918,103.249649 
	C73.848061,102.100113 71.131554,99.007706 70.584183,93.101013 
	C72.837692,95.471886 74.426468,97.143410 76.353592,99.003693 
z"/>
<path fill="#070503" opacity="1.000000" stroke="none" 
	d="
M91.178711,58.175568 
	C90.963219,58.443462 90.622116,58.588184 90.281021,58.732910 
	C90.282112,58.490707 90.283195,58.248508 90.544052,57.905190 
	C90.803833,57.804077 91.053108,58.052391 91.178711,58.175568 
z"/>
<path fill="#070503" opacity="1.000000" stroke="none" 
	d="
M18.406319,101.866692 
	C18.537981,102.364120 18.376789,102.994110 17.860165,103.665108 
	C17.707644,103.137161 17.910555,102.568207 18.406319,101.866692 
z"/>
<path fill="#070503" opacity="1.000000" stroke="none" 
	d="
M18.959179,101.093613 
	C19.468679,101.279999 19.777895,101.536613 20.087112,101.793221 
	C19.760618,101.792915 19.434126,101.792618 18.855045,101.675369 
	C18.602459,101.558426 18.758896,101.163834 18.959179,101.093613 
z"/>
<path fill="#070503" opacity="1.000000" stroke="none" 
	d="
M17.325796,103.946648 
	C17.766363,104.100838 17.812387,104.409760 17.856764,105.190613 
	C17.547161,105.142143 17.239208,104.621758 17.325796,103.946648 
z"/>
<path fill="#24230B" opacity="1.000000" stroke="none" 
	d="
M231.135880,106.910583 
	C231.646912,102.928795 232.092468,99.362610 232.537766,95.796387 
	C236.433121,97.862198 236.098343,103.346931 231.220474,110.377991 
	C231.150406,108.953224 231.110413,108.139709 231.135880,106.910583 
z"/>
<path fill="#07C8BA" opacity="1.000000" stroke="none" 
	d="
M116.084297,92.393860 
	C117.155449,92.018822 118.186615,92.004486 119.604324,91.987671 
	C118.896935,92.977806 117.802986,93.970406 116.344269,94.948257 
	C116.001106,94.207199 116.022713,93.480881 116.084297,92.393860 
z"/>
<path fill="#07C8BA" opacity="1.000000" stroke="none" 
	d="
M125.321411,86.956596 
	C125.767754,86.018333 126.554619,85.050301 127.683395,84.057816 
	C127.237511,84.997856 126.449722,85.962341 125.321411,86.956596 
z"/>
<path fill="#09F8E7" opacity="1.000000" stroke="none" 
	d="
M200.567505,89.585976 
	C200.567505,89.585976 200.556290,89.213905 201.103455,89.087769 
	C204.769394,89.639328 207.888138,90.317017 211.006897,90.994713 
	C212.870468,103.208557 212.566025,115.380066 210.726410,127.545868 
	C205.634308,128.411606 202.754059,127.118408 202.411407,121.795883 
	C202.124283,117.336197 201.336884,112.908714 200.397842,107.809921 
	C199.957306,105.431488 199.889923,103.710121 199.929718,101.646729 
	C206.092987,96.852547 206.242325,93.554649 200.567505,89.585976 
z"/>
<path fill="#1393B9" opacity="1.000000" stroke="none" 
	d="
M197.563675,110.537949 
	C198.266449,115.798111 198.969223,121.058266 199.730881,126.759262 
	C197.769211,126.893974 195.842117,127.026306 192.816406,127.234093 
	C192.158096,120.643440 191.522263,114.277908 191.014572,107.405678 
	C191.142700,106.898979 191.457626,106.749435 191.639557,107.073715 
	C193.735550,108.444649 195.649612,109.491295 197.563675,110.537949 
z"/>
<path fill="#F7FCFC" opacity="1.000000" stroke="none" 
	d="
M200.215881,89.594872 
	C206.242325,93.554649 206.092987,96.852547 199.553787,101.645744 
	C198.319092,101.967102 197.567490,101.947426 196.861938,101.562004 
	C192.607010,95.544891 192.628067,93.964272 197.059296,89.833786 
	C197.994293,89.757111 198.929276,89.680435 200.215881,89.594872 
z"/>
<path fill="#0DDACC" opacity="1.000000" stroke="none" 
	d="
M211.077271,90.581703 
	C207.888138,90.317017 204.769394,89.639328 201.238617,88.959808 
	C200.941513,86.963890 201.056442,84.969803 201.700745,82.532089 
	C204.742203,82.092964 207.254318,82.097473 209.766418,82.101974 
	C210.226837,84.790878 210.687241,87.479790 211.077271,90.581703 
z"/>
<path fill="#F4F6F7" opacity="1.000000" stroke="none" 
	d="
M196.815903,101.927757 
	C197.567490,101.947426 198.319092,101.967102 199.446625,101.987762 
	C199.889923,103.710121 199.957306,105.431488 200.055908,107.582329 
	C199.389877,108.718910 198.692627,109.426025 197.779510,110.335541 
	C195.649612,109.491295 193.735550,108.444649 191.699432,106.708282 
	C192.096466,103.083603 193.721375,101.564697 196.815903,101.927757 
z"/>
<path fill="#2B3954" opacity="1.000000" stroke="none" 
	d="
M196.861938,101.562004 
	C193.721375,101.564697 192.096466,103.083603 191.517487,106.383995 
	C191.457626,106.749435 191.142700,106.898979 190.975342,106.948074 
	C190.392410,100.526604 190.226822,94.099777 195.010956,88.867256 
	C195.250290,88.605492 196.319183,89.102211 197.030548,89.539772 
	C192.628067,93.964272 192.607010,95.544891 196.861938,101.562004 
z"/>
<path fill="#143849" opacity="1.000000" stroke="none" 
	d="
M217.972153,105.948524 
	C217.537766,109.370964 217.103806,112.344963 216.669861,115.318970 
	C216.197037,115.270958 215.724228,115.222946 215.251404,115.174942 
	C215.251404,107.043121 215.251404,98.911308 215.251404,90.779495 
	C215.480179,90.714020 215.708954,90.648544 215.937729,90.583069 
	C216.616028,95.555412 217.294312,100.527748 217.972153,105.948524 
z"/>
<path fill="#089A92" opacity="1.000000" stroke="none" 
	d="
M209.790741,81.715179 
	C207.254318,82.097473 204.742203,82.092964 201.816025,82.119675 
	C203.043976,79.488152 204.685989,76.825417 206.328003,74.162674 
	C206.896667,74.385651 207.465317,74.608627 208.033966,74.831604 
	C208.627670,76.997192 209.221359,79.162788 209.790741,81.715179 
z"/>
<path fill="#B3B3B3" opacity="1.000000" stroke="none" 
	d="
M219.012054,123.293922 
	C220.270645,122.668556 221.391479,122.394638 222.862640,122.123795 
	C222.972351,125.253029 222.689880,128.346680 217.878525,128.644043 
	C218.263412,126.711998 218.568848,125.178688 219.012054,123.293922 
z"/>
<path fill="#E6E6E6" opacity="1.000000" stroke="none" 
	d="
M131.123718,157.930466 
	C132.188828,159.618454 133.253937,161.306458 134.637299,163.329575 
	C135.613266,163.618668 136.598557,163.834152 136.876968,163.485367 
	C139.151108,160.636490 141.714493,157.873245 145.592590,159.888428 
	C153.493500,163.994003 161.172150,168.527252 168.942368,172.884308 
	C163.738998,173.941544 158.535645,174.998764 153.332275,176.055984 
	C153.351273,176.273911 153.370285,176.491837 153.389282,176.709778 
	C154.993759,176.862305 156.598221,177.014832 158.567978,177.202087 
	C150.755630,182.454208 143.235458,187.509903 135.338531,192.818878 
	C135.158325,191.332870 134.995697,189.991867 134.806107,188.428528 
	C134.437729,188.814209 134.215775,188.953400 134.128937,189.151749 
	C133.143387,191.402985 132.642227,194.102066 131.056595,195.777863 
	C129.857407,197.045273 127.253365,197.533936 125.322693,197.434479 
	C122.132904,197.270126 119.073135,195.187210 115.727783,197.277771 
	C115.048111,197.702515 113.411560,197.328629 112.641312,196.753494 
	C108.543983,193.694092 104.467506,190.582275 100.649628,187.189468 
	C99.631584,186.284775 99.018623,184.236755 99.249832,182.890564 
	C99.373978,182.167725 101.649284,181.522202 103.016792,181.354446 
	C109.777374,180.525146 116.564316,179.912735 123.329475,179.117554 
	C125.103149,178.909073 126.832169,178.320724 128.541367,177.433167 
	C120.933037,177.018265 113.324585,176.605896 105.716652,176.183945 
	C105.052795,176.147125 104.389618,176.067032 103.730881,175.973541 
	C94.303513,174.635574 91.717972,170.349777 95.184708,160.478027 
	C99.694473,156.523331 104.319344,155.704315 109.659454,156.913986 
	C111.608742,158.358536 113.282417,159.639206 115.094078,161.240417 
	C115.712471,162.819092 116.192871,164.077255 117.032730,166.276825 
	C119.764572,158.918533 124.053871,155.710342 131.123718,157.930466 
z"/>
<path fill="#B1B1B1" opacity="1.000000" stroke="none" 
	d="
M169.308151,172.880417 
	C161.172150,168.527252 153.493500,163.994003 145.592590,159.888428 
	C141.714493,157.873245 139.151108,160.636490 136.876968,163.485367 
	C136.598557,163.834152 135.613266,163.618668 134.981293,163.362610 
	C136.958588,156.485153 141.662247,154.327927 147.919312,157.268295 
	C157.290726,161.672180 166.621399,166.162689 175.951431,170.607788 
	C174.071381,171.287247 171.872665,172.081879 169.308151,172.880417 
z"/>
<path fill="#F68282" opacity="1.000000" stroke="none" 
	d="
M114.956093,160.919891 
	C113.282417,159.639206 111.608742,158.358536 109.530365,156.597763 
	C105.177010,153.494141 99.432358,154.362900 95.040115,158.247787 
	C94.822426,157.002899 94.604736,155.757996 95.021019,154.257050 
	C102.503616,150.717361 109.438354,147.809891 117.278099,150.018265 
	C120.485405,150.921722 123.639008,152.015808 126.431877,153.015045 
	C120.374466,152.875946 117.192963,156.235931 114.956093,160.919891 
z"/>
<path fill="#D06D6D" opacity="1.000000" stroke="none" 
	d="
M126.817047,153.023178 
	C123.639008,152.015808 120.485405,150.921722 117.278099,150.018265 
	C109.438354,147.809891 102.503616,150.717361 95.271675,153.972473 
	C95.037430,153.342758 95.186516,152.741562 95.486404,151.864746 
	C96.075462,151.288010 96.513718,150.986877 97.052933,150.440674 
	C111.472038,144.844864 125.133865,147.887039 139.390259,153.691422 
	C136.427032,154.586197 136.013458,159.701416 131.274307,156.137695 
	C129.388046,154.911713 128.102554,153.967438 126.817047,153.023178 
z"/>
<path fill="#B7B7B7" opacity="1.000000" stroke="none" 
	d="
M126.431877,153.015045 
	C128.102554,153.967438 129.388046,154.911713 130.983459,156.009109 
	C131.246964,156.553833 131.200562,156.945419 131.138947,157.633728 
	C124.053871,155.710342 119.764572,158.918533 117.032730,166.276825 
	C116.192871,164.077255 115.712471,162.819092 115.094078,161.240417 
	C117.192963,156.235931 120.374466,152.875946 126.431877,153.015045 
z"/>
<path fill="#1D1414" opacity="1.000000" stroke="none" 
	d="
M95.023697,158.581299 
	C99.432358,154.362900 105.177010,153.494141 109.254753,156.433899 
	C104.319344,155.704315 99.694473,156.523331 95.355049,160.114532 
	C95.015167,159.805527 95.011223,159.360184 95.023697,158.581299 
z"/>
</svg>